<svg xmlns="http://www.w3.org/2000/svg" xmlns:xlink="http://www.w3.org/1999/xlink" width="150" zoomAndPan="magnify" viewBox="0 0 112.5 119.999999" height="160" preserveAspectRatio="xMidYMid meet" version="1.0"><defs><g/><clipPath id="9079e8e213"><path d="M 0 0.265625 L 112 0.265625 L 112 119 L 0 119 Z M 0 0.265625 " clip-rule="nonzero"/></clipPath></defs><g clip-path="url(#9079e8e213)"><path fill="#a34054" d="M 81.421875 84.378906 C 83.46875 89.121094 82.910156 94.0625 82.941406 98.941406 C 82.972656 103.804688 82.972656 108.671875 82.9375 113.539062 C 82.910156 117.15625 79.996094 119.566406 76.636719 118.832031 C 74.296875 118.316406 72.648438 116.277344 72.644531 113.757812 C 72.628906 106.882812 72.605469 100.003906 72.675781 93.128906 C 72.710938 89.703125 71.699219 86.730469 69.386719 84.210938 C 67.894531 82.589844 67.351562 80.742188 68.152344 78.65625 C 68.925781 76.636719 70.503906 75.703125 72.632812 75.304688 C 76.527344 74.582031 80.488281 73.957031 84.246094 72.75 C 92.929688 69.964844 98.015625 63.761719 99.871094 54.921875 C 101.011719 49.503906 101.539062 44.027344 100.148438 38.554688 C 99.253906 35.023438 97.582031 31.875 95.09375 29.21875 C 93.277344 27.277344 92.839844 25.21875 93.742188 22.699219 C 95.082031 18.945312 95.21875 15.089844 94.230469 10.96875 C 92.878906 11.429688 91.535156 11.722656 90.347656 12.324219 C 87.347656 13.84375 84.34375 15.390625 81.476562 17.148438 C 79.554688 18.332031 77.722656 18.683594 75.539062 18.117188 C 65.015625 15.394531 54.484375 15.398438 43.949219 18.128906 C 41.8125 18.683594 39.96875 18.414062 38.128906 17.164062 C 34.53125 14.726562 30.742188 12.617188 26.539062 11.371094 C 26.164062 11.257812 25.777344 11.183594 25.304688 11.070312 C 24.523438 13.949219 24.460938 16.769531 24.992188 19.59375 C 25.230469 20.851562 25.609375 22.085938 25.996094 23.308594 C 26.621094 25.273438 26.359375 27.078125 24.957031 28.589844 C 20.371094 33.546875 18.335938 39.394531 18.601562 46.109375 C 18.785156 50.753906 19.351562 55.320312 21.082031 59.675781 C 23.886719 66.730469 29.238281 71.011719 36.316406 73.164062 C 39.640625 74.175781 43.101562 74.789062 46.539062 75.375 C 50.023438 75.972656 52.085938 78.117188 51.625 81.277344 C 51.480469 82.285156 50.957031 83.378906 50.28125 84.144531 C 47.835938 86.917969 46.792969 90.070312 46.847656 93.757812 C 46.949219 100.390625 46.898438 107.027344 46.871094 113.660156 C 46.859375 116.707031 44.679688 118.953125 41.800781 118.992188 C 38.90625 119.03125 36.664062 116.730469 36.636719 113.632812 C 36.609375 110.742188 36.628906 107.851562 36.628906 105.117188 C 34 105.117188 31.476562 105.253906 28.972656 105.089844 C 22.996094 104.699219 18.019531 102.09375 13.964844 97.769531 C 12.125 95.808594 10.472656 93.667969 8.757812 91.59375 C 7.34375 89.878906 5.871094 88.359375 3.628906 87.582031 C 1.148438 86.726562 0.0117188 83.773438 0.867188 81.277344 C 1.746094 78.71875 4.40625 77.308594 7.042969 77.984375 C 10.449219 78.859375 13.109375 80.878906 15.355469 83.480469 C 16.988281 85.363281 18.554688 87.304688 20.09375 89.265625 C 24.40625 94.746094 30.03125 95.886719 36.484375 94.34375 C 36.605469 92.628906 36.621094 90.9375 36.867188 89.28125 C 37.113281 87.664062 37.59375 86.082031 37.976562 84.449219 C 36.140625 83.886719 34.210938 83.367188 32.332031 82.714844 C 18.574219 77.925781 11.105469 68.003906 8.980469 53.832031 C 8.140625 48.246094 7.855469 42.636719 9.144531 37.050781 C 10.171875 32.605469 12.007812 28.535156 14.722656 24.875 C 15.191406 24.242188 15.355469 23.683594 15.179688 22.898438 C 13.730469 16.519531 14.253906 10.289062 16.691406 4.21875 C 17.699219 1.699219 19.371094 0.6875 22.066406 0.5625 C 28.421875 0.265625 33.972656 2.703125 39.195312 5.835938 C 41.699219 7.335938 43.910156 7.609375 46.703125 7.054688 C 56.242188 5.15625 65.808594 5.433594 75.308594 7.480469 C 76.40625 7.714844 77.25 7.605469 78.21875 7.011719 C 82.933594 4.125 87.839844 1.636719 93.371094 0.761719 C 95.058594 0.496094 96.828125 0.492188 98.535156 0.648438 C 100.574219 0.832031 101.980469 2.066406 102.753906 3.980469 C 105.261719 10.15625 105.824219 16.488281 104.390625 23.011719 C 104.28125 23.515625 104.40625 24.230469 104.703125 24.640625 C 109.734375 31.53125 111.691406 39.261719 111.175781 47.707031 C 110.835938 53.3125 109.972656 58.808594 107.773438 64.023438 C 103.621094 73.878906 96.085938 79.90625 86.058594 83.074219 C 84.574219 83.542969 83.0625 83.921875 81.421875 84.378906 Z M 81.421875 84.378906 " fill-opacity="1" fill-rule="nonzero"/></g><g fill="#a34054" fill-opacity="1"><g transform="translate(71.672866, 96.381921)"><g><path d="M 4.09375 0.1875 C 3.519531 0.1875 3.035156 -0.015625 2.640625 -0.421875 C 2.242188 -0.835938 2.046875 -1.34375 2.046875 -1.9375 C 2.046875 -2.519531 2.242188 -3.007812 2.640625 -3.40625 C 3.035156 -3.8125 3.519531 -4.015625 4.09375 -4.015625 C 4.65625 -4.015625 5.140625 -3.8125 5.546875 -3.40625 C 5.960938 -3.007812 6.171875 -2.519531 6.171875 -1.9375 C 6.171875 -1.34375 5.960938 -0.835938 5.546875 -0.421875 C 5.140625 -0.015625 4.65625 0.1875 4.09375 0.1875 Z M 4.09375 0.1875 "/></g></g></g></svg>