<svg xmlns="http://www.w3.org/2000/svg" xmlns:xlink="http://www.w3.org/1999/xlink" width="188" zoomAndPan="magnify" viewBox="0 0 141 131.249995" height="175" preserveAspectRatio="xMidYMid meet" version="1.0"><defs><g/><clipPath id="b1a0851ad0"><path d="M 0.402344 11.15625 L 119 11.15625 L 119 130 L 0.402344 130 Z M 0.402344 11.15625 " clip-rule="nonzero"/></clipPath><clipPath id="b22f09c601"><path d="M 123 114 L 139.855469 114 L 139.855469 130.476562 L 123 130.476562 Z M 123 114 " clip-rule="nonzero"/></clipPath></defs><path fill="#a34054" d="M 133.234375 122.65625 C 134.441406 122.667969 135.433594 121.699219 135.445312 120.492188 C 135.445312 120.441406 135.445312 120.390625 135.445312 120.339844 C 135.445312 118.699219 134.453125 117.917969 132.425781 117.917969 L 129.144531 117.917969 L 129.144531 126.503906 L 130.382812 126.503906 L 130.382812 122.761719 L 131.894531 122.761719 L 131.929688 122.808594 L 134.285156 126.503906 L 135.605469 126.503906 L 133.070312 122.679688 L 133.238281 122.65625 Z M 131.808594 121.792969 L 130.375 121.792969 L 130.375 118.890625 L 132.191406 118.890625 C 133.128906 118.890625 134.195312 119.046875 134.195312 120.273438 C 134.195312 121.683594 133.117188 121.800781 131.800781 121.800781 " fill-opacity="1" fill-rule="nonzero"/><g clip-path="url(#b1a0851ad0)"><path fill="#a34054" d="M 101.039062 111.890625 L 83.539062 111.890625 L 83.539062 84.484375 C 83.539062 77.953125 83.421875 69.539062 74.4375 69.539062 C 65.457031 69.539062 63.929688 76.660156 63.929688 84.011719 L 63.929688 111.890625 L 46.429688 111.890625 L 46.429688 55.53125 L 63.234375 55.53125 L 63.234375 63.234375 L 63.46875 63.234375 C 66.890625 57.375 73.261719 53.875 80.039062 54.128906 C 97.777344 54.128906 101.046875 65.796875 101.046875 80.972656 L 101.046875 111.890625 Z M 26.675781 47.828125 C 21.066406 47.828125 16.519531 43.285156 16.519531 37.675781 C 16.519531 32.066406 21.0625 27.519531 26.671875 27.519531 C 32.277344 27.519531 36.828125 32.0625 36.828125 37.671875 C 36.828125 43.277344 32.285156 47.828125 26.675781 47.828125 M 35.429688 111.890625 L 17.910156 111.890625 L 17.910156 55.53125 L 35.429688 55.53125 Z M 109.765625 11.261719 L 9.117188 11.261719 C 4.359375 11.210938 0.457031 15.019531 0.402344 19.777344 L 0.402344 120.839844 C 0.457031 125.601562 4.355469 129.414062 9.117188 129.363281 L 109.765625 129.363281 C 114.53125 129.425781 118.445312 125.609375 118.511719 120.839844 L 118.511719 19.769531 C 118.445312 15.003906 114.53125 11.195312 109.765625 11.253906 " fill-opacity="1" fill-rule="nonzero"/></g><g clip-path="url(#b22f09c601)"><path fill="#a34054" d="M 131.953125 114.089844 C 127.503906 114.136719 123.933594 117.773438 123.976562 122.222656 C 124.019531 126.671875 127.660156 130.242188 132.109375 130.199219 C 136.558594 130.152344 140.128906 126.515625 140.082031 122.066406 C 140.039062 117.679688 136.496094 114.128906 132.109375 114.089844 L 131.953125 114.089844 M 131.953125 129.277344 C 128.054688 129.347656 124.839844 126.234375 124.773438 122.335938 C 124.707031 118.4375 127.820312 115.222656 131.71875 115.15625 C 135.617188 115.089844 138.832031 118.203125 138.898438 122.101562 L 138.898438 122.21875 C 138.980469 126.03125 135.949219 129.191406 132.136719 129.273438 L 131.953125 129.273438 " fill-opacity="1" fill-rule="nonzero"/></g><g fill="#a34054" fill-opacity="1"><g transform="translate(99.884588, 47.573352)"><g><path d="M 4.09375 0.1875 C 3.519531 0.1875 3.035156 -0.015625 2.640625 -0.421875 C 2.242188 -0.835938 2.046875 -1.335938 2.046875 -1.921875 C 2.046875 -2.515625 2.242188 -3.007812 2.640625 -3.40625 C 3.035156 -3.8125 3.519531 -4.015625 4.09375 -4.015625 C 4.65625 -4.015625 5.140625 -3.8125 5.546875 -3.40625 C 5.960938 -3.007812 6.171875 -2.515625 6.171875 -1.921875 C 6.171875 -1.335938 5.960938 -0.835938 5.546875 -0.421875 C 5.140625 -0.015625 4.65625 0.1875 4.09375 0.1875 Z M 4.09375 0.1875 "/></g></g></g></svg>